HIERARCHY
ROOT Hips
{
	OFFSET 0.000000 100.481300 0.000000
	CHANNELS 6 Xposition Yposition Zposition Xrotation Yrotation Zrotation
	JOINT Spine
	{
		OFFSET -0.279200 12.230698 -2.892100
		CHANNELS 3 Xrotation Yrotation Zrotation
		JOINT Spine1
		{
			OFFSET -0.325700 14.269203 -3.374200
			CHANNELS 3 Xrotation Yrotation Zrotation
			JOINT Spine2
			{
				OFFSET -0.372300 16.307602 -0.352600
				CHANNELS 3 Xrotation Yrotation Zrotation
				JOINT Neck
				{
					OFFSET -0.418800 17.814194 8.416900
					CHANNELS 3 Xrotation Yrotation Zrotation
					JOINT Head
					{
						OFFSET 0.000000 7.031097 3.806800
						CHANNELS 3 Xrotation Yrotation Zrotation
						JOINT HeadTop_End
						{
							OFFSET 0.000000 24.646606 12.978600
							CHANNELS 3 Xrotation Yrotation Zrotation
							End Site
							{
								OFFSET 0.000000 27.854965 0.000000
							}
						}
					}
				}
				JOINT LeftShoulder
				{
					OFFSET 16.952999 14.495407 -7.737500
					CHANNELS 3 Xrotation Yrotation Zrotation
					JOINT LeftArm
					{
						OFFSET 9.308998 -2.777710 0.208600
						CHANNELS 3 Xrotation Yrotation Zrotation
						JOINT LeftForeArm
						{
							OFFSET 29.972298 0.000000 0.000000
							CHANNELS 3 Xrotation Yrotation Zrotation
							JOINT LeftHand
							{
								OFFSET 26.026505 0.000000 0.000000
								CHANNELS 3 Xrotation Yrotation Zrotation
								JOINT LeftHandThumb1
								{
									OFFSET 12.240501 -7.147949 9.207150
									CHANNELS 3 Xrotation Yrotation Zrotation
									JOINT LeftHandThumb2
									{
										OFFSET 4.138618 -2.389435 2.389433
										CHANNELS 3 Xrotation Yrotation Zrotation
										JOINT LeftHandThumb3
										{
											OFFSET 2.726913 -1.574387 1.574386
											CHANNELS 3 Xrotation Yrotation Zrotation
											JOINT LeftHandThumb4
											{
												OFFSET 3.941010 -2.275345 2.275342
												CHANNELS 3 Xrotation Yrotation Zrotation
												End Site
												{
													OFFSET -0.005798 5.087799 0.009903
												}
											}
										}
									}
								}
								JOINT LeftHandIndex1
								{
									OFFSET 24.424698 -1.985611 5.953459
									CHANNELS 3 Xrotation Yrotation Zrotation
									JOINT LeftHandIndex2
									{
										OFFSET 6.426697 0.000000 0.000000
										CHANNELS 3 Xrotation Yrotation Zrotation
										JOINT LeftHandIndex3
										{
											OFFSET 5.337898 0.000000 0.000000
											CHANNELS 3 Xrotation Yrotation Zrotation
											JOINT LeftHandIndex4
											{
												OFFSET 4.409401 0.000000 0.000000
												CHANNELS 3 Xrotation Yrotation Zrotation
												End Site
												{
													OFFSET 0.000000 4.409363 0.014373
												}
											}
										}
									}
								}
								JOINT LeftHandMiddle1
								{
									OFFSET 23.810104 0.000000 0.000000
									CHANNELS 3 Xrotation Yrotation Zrotation
									JOINT LeftHandMiddle2
									{
										OFFSET 7.176498 0.000000 0.000000
										CHANNELS 3 Xrotation Yrotation Zrotation
										JOINT LeftHandMiddle3
										{
											OFFSET 6.774902 0.000000 0.000000
											CHANNELS 3 Xrotation Yrotation Zrotation
											JOINT LeftHandMiddle4
											{
												OFFSET 5.403328 0.000000 0.000000
												CHANNELS 3 Xrotation Yrotation Zrotation
												End Site
												{
													OFFSET -0.027702 5.403244 0.017414
												}
											}
										}
									}
								}
								JOINT LeftHandRing1
								{
									OFFSET 22.908401 -0.839279 -6.020567
									CHANNELS 3 Xrotation Yrotation Zrotation
									JOINT LeftHandRing2
									{
										OFFSET 6.337502 0.000000 0.000000
										CHANNELS 3 Xrotation Yrotation Zrotation
										JOINT LeftHandRing3
										{
											OFFSET 5.779297 0.000000 0.000000
											CHANNELS 3 Xrotation Yrotation Zrotation
											JOINT LeftHandRing4
											{
												OFFSET 4.965698 0.000000 0.000000
												CHANNELS 3 Xrotation Yrotation Zrotation
												End Site
												{
													OFFSET 0.000000 4.965668 0.016186
												}
											}
										}
									}
								}
								JOINT LeftHandPinky1
								{
									OFFSET 20.037003 -1.530319 -10.950146
									CHANNELS 3 Xrotation Yrotation Zrotation
									JOINT LeftHandPinky2
									{
										OFFSET 5.254700 0.000000 0.000000
										CHANNELS 3 Xrotation Yrotation Zrotation
										JOINT LeftHandPinky3
										{
											OFFSET 4.810204 0.000000 0.000000
											CHANNELS 3 Xrotation Yrotation Zrotation
											JOINT LeftHandPinky4
											{
												OFFSET 3.647202 0.000000 0.000000
												CHANNELS 3 Xrotation Yrotation Zrotation
												End Site
												{
													OFFSET 0.000000 3.647186 0.011889
												}
											}
										}
									}
								}
							}
						}
					}
				}
				JOINT RightShoulder
				{
					OFFSET -15.141001 14.495407 -7.737500
					CHANNELS 3 Xrotation Yrotation Zrotation
					JOINT RightArm
					{
						OFFSET -9.308998 -2.777710 0.208500
						CHANNELS 3 Xrotation Yrotation Zrotation
						JOINT RightForeArm
						{
							OFFSET -29.972300 0.000000 0.000000
							CHANNELS 3 Xrotation Yrotation Zrotation
							JOINT RightHand
							{
								OFFSET -26.026505 0.000000 0.000000
								CHANNELS 3 Xrotation Yrotation Zrotation
								JOINT RightHandThumb1
								{
									OFFSET -12.240601 -7.148026 9.207092
									CHANNELS 3 Xrotation Yrotation Zrotation
									JOINT RightHandThumb2
									{
										OFFSET -4.138618 -2.389435 2.389433
										CHANNELS 3 Xrotation Yrotation Zrotation
										JOINT RightHandThumb3
										{
											OFFSET -2.726974 -1.574417 1.574421
											CHANNELS 3 Xrotation Yrotation Zrotation
											JOINT RightHandThumb4
											{
												OFFSET -3.941010 -2.275345 2.275343
												CHANNELS 3 Xrotation Yrotation Zrotation
												End Site
												{
													OFFSET 0.005814 5.087799 0.009927
												}
											}
										}
									}
								}
								JOINT RightHandIndex1
								{
									OFFSET -24.424698 -1.985657 5.953444
									CHANNELS 3 Xrotation Yrotation Zrotation
									JOINT RightHandIndex2
									{
										OFFSET -6.426697 0.000000 0.000000
										CHANNELS 3 Xrotation Yrotation Zrotation
										JOINT RightHandIndex3
										{
											OFFSET -5.337898 0.000000 0.000000
											CHANNELS 3 Xrotation Yrotation Zrotation
											JOINT RightHandIndex4
											{
												OFFSET -4.409401 0.000000 0.000000
												CHANNELS 3 Xrotation Yrotation Zrotation
												End Site
												{
													OFFSET 0.000000 4.409363 0.014408
												}
											}
										}
									}
								}
								JOINT RightHandMiddle1
								{
									OFFSET -23.810097 0.000000 0.000000
									CHANNELS 3 Xrotation Yrotation Zrotation
									JOINT RightHandMiddle2
									{
										OFFSET -7.176498 0.000000 0.000000
										CHANNELS 3 Xrotation Yrotation Zrotation
										JOINT RightHandMiddle3
										{
											OFFSET -6.774902 0.000000 0.000000
											CHANNELS 3 Xrotation Yrotation Zrotation
											JOINT RightHandMiddle4
											{
												OFFSET -5.403328 0.000000 0.000000
												CHANNELS 3 Xrotation Yrotation Zrotation
												End Site
												{
													OFFSET 0.027702 5.403244 0.017457
												}
											}
										}
									}
								}
								JOINT RightHandRing1
								{
									OFFSET -22.908302 -0.839325 -6.020576
									CHANNELS 3 Xrotation Yrotation Zrotation
									JOINT RightHandRing2
									{
										OFFSET -6.337502 0.000000 0.000000
										CHANNELS 3 Xrotation Yrotation Zrotation
										JOINT RightHandRing3
										{
											OFFSET -5.779297 0.000000 0.000000
											CHANNELS 3 Xrotation Yrotation Zrotation
											JOINT RightHandRing4
											{
												OFFSET -4.965698 0.000000 0.000000
												CHANNELS 3 Xrotation Yrotation Zrotation
												End Site
												{
													OFFSET 0.000000 4.965668 0.016226
												}
											}
										}
									}
								}
								JOINT RightHandPinky1
								{
									OFFSET -20.037003 -1.530334 -10.950259
									CHANNELS 3 Xrotation Yrotation Zrotation
									JOINT RightHandPinky2
									{
										OFFSET -5.254700 0.000000 0.000000
										CHANNELS 3 Xrotation Yrotation Zrotation
										JOINT RightHandPinky3
										{
											OFFSET -4.810204 0.000000 0.000000
											CHANNELS 3 Xrotation Yrotation Zrotation
											JOINT RightHandPinky4
											{
												OFFSET -3.647202 0.000000 0.000000
												CHANNELS 3 Xrotation Yrotation Zrotation
												End Site
												{
													OFFSET 0.000000 3.647186 0.011917
												}
											}
										}
									}
								}
							}
						}
					}
				}
			}
		}
	}
	JOINT LeftUpLeg
	{
		OFFSET 15.427100 -6.655098 0.678600
		CHANNELS 3 Xrotation Yrotation Zrotation
		JOINT LeftLeg
		{
			OFFSET 4.081073 -39.591068 13.024000
			CHANNELS 3 Xrotation Yrotation Zrotation
			JOINT LeftFoot
			{
				OFFSET -4.081074 -37.707932 -15.979700
				CHANNELS 3 Xrotation Yrotation Zrotation
				JOINT LeftToeBase
				{
					OFFSET 5.346399 -15.068900 20.645000
					CHANNELS 3 Xrotation Yrotation Zrotation
					JOINT LeftToe_End
					{
						OFFSET 2.754700 0.931300 11.300900
						CHANNELS 3 Xrotation Yrotation Zrotation
						End Site
						{
							OFFSET 0.000000 11.669021 0.000000
						}
					}
				}
			}
		}
	}
	JOINT RightUpLeg
	{
		OFFSET -15.569500 -6.655098 0.678600
		CHANNELS 3 Xrotation Yrotation Zrotation
		JOINT RightLeg
		{
			OFFSET -4.081825 -39.591045 13.023800
			CHANNELS 3 Xrotation Yrotation Zrotation
			JOINT RightFoot
			{
				OFFSET 4.081824 -37.707954 -15.979600
				CHANNELS 3 Xrotation Yrotation Zrotation
				JOINT RightToeBase
				{
					OFFSET -5.346400 -15.068900 20.645000
					CHANNELS 3 Xrotation Yrotation Zrotation
					JOINT RightToe_End
					{
						OFFSET -2.754700 0.931300 11.300900
						CHANNELS 3 Xrotation Yrotation Zrotation
						End Site
						{
							OFFSET 0.000000 11.669021 0.000000
						}
					}
				}
			}
		}
	}
}
MOTION
Frames: 5
Frame Time: 0.033333
0.525159 97.062027 26.398359 6.596939 -3.865028 -0.696370 10.075588 2.119102 0.154590 3.876933 0.386514 -0.423456 3.872949 0.558788 0.192974 -10.005197 -1.757225 6.792545 -1.709324 4.108626 -9.579182 0.000001 -0.000000 -0.000000 -7.854937 19.789324 31.056938 -40.678629 -14.935541 27.291201 0.000004 -0.610316 0.000005 -69.879508 -27.319927 55.354923 35.508186 -37.260939 -10.059993 -2.852786 51.529515 25.374499 -3.573684 37.502670 36.636568 -0.000002 -0.000002 -0.000000 5.518014 8.185406 -86.057057 3.600696 5.402392 -67.345119 1.934749 4.350506 -47.934691 0.000000 0.000000 0.000000 5.552153 8.192960 -83.944446 3.356459 5.294294 -64.725263 1.820557 4.244961 -46.410787 -0.000001 -0.000000 0.000003 5.824435 8.208223 -85.722392 3.284857 5.260046 -63.946867 1.871438 4.292677 -47.094602 0.000000 -0.000000 0.000001 6.089685 8.208783 -91.656002 3.481258 5.351204 -66.070612 1.942562 4.357541 -48.037772 -0.000001 0.000000 -0.000001 -10.106131 -23.436454 -36.290527 -58.747243 22.044413 -11.454340 -0.000002 0.021912 -0.000006 -54.580639 27.371005 -62.387412 32.505980 27.038868 0.615816 12.433741 -29.190371 -12.958669 -26.424836 -67.051127 -58.492914 0.000002 -0.000000 -0.000001 1.899411 -5.994725 52.900041 3.250678 -4.440149 72.403700 1.771039 -3.656609 51.673677 0.000000 0.000000 -0.000000 1.607371 -5.755887 48.252182 3.305802 -4.457210 73.114231 1.900423 -3.755077 53.675441 -0.000001 0.000000 -0.000003 1.731018 -5.861864 50.258082 3.228077 -4.432942 72.111512 1.835294 -3.706416 52.674508 -0.000000 -0.000000 -0.000000 1.858357 -5.963497 52.264608 1.534690 -3.457048 47.865296 2.142573 -3.921191 57.291678 0.000001 0.000000 -0.000000 -13.412853 9.499227 11.570802 11.592998 3.641670 -1.657489 -4.205170 0.974863 -6.413931 -3.094933 -0.000006 0.000000 -0.000000 0.000000 -0.000000 -13.710624 -1.570556 -5.553895 10.434613 -4.130708 -0.375312 -2.571139 -1.542809 6.542265 -3.454732 0.000004 0.000001 -0.000000 -0.000001 -0.000000 
0.630360 96.870132 26.286623 5.992156 -4.358864 -0.709953 10.281290 2.178288 0.013063 3.931062 0.422588 -0.335513 3.926884 0.569003 0.178699 -10.215418 -1.837718 7.060199 -1.921948 4.653480 -9.686689 -0.000001 -0.000000 0.000000 -8.035348 20.419436 30.789116 -41.434772 -16.839201 26.759814 -0.000001 -0.000002 0.000002 -68.232408 -27.724820 55.306688 35.508186 -37.260929 -10.059995 -2.852787 51.529519 25.374503 -3.573682 37.502663 36.636568 0.000001 -0.000000 -0.000000 5.517782 8.185372 -86.054742 3.600492 5.402297 -67.342954 1.934748 4.350506 -47.934694 -0.000001 -0.000000 -0.000001 5.551848 8.192930 -83.941611 3.356239 5.294208 -64.722961 1.820556 4.244961 -46.410790 0.000000 -0.000000 0.000001 5.824105 8.208211 -85.719168 3.284659 5.259947 -63.944641 1.871438 4.292678 -47.094602 0.000001 -0.000000 0.000001 6.089686 8.208782 -91.656002 3.481258 5.351203 -66.070612 1.942562 4.357542 -48.037772 -0.000001 0.000000 -0.000000 -9.986577 -22.998992 -36.594429 -56.849051 22.005386 -11.864920 0.000006 0.001557 -0.000014 -56.099048 27.177587 -62.757253 32.505977 27.038866 0.615815 12.433742 -29.190371 -12.958664 -26.424836 -67.051127 -58.492907 0.000004 0.000003 -0.000001 1.899411 -5.994725 52.900051 3.250679 -4.440148 72.403700 1.771040 -3.656608 51.673680 0.000001 0.000000 -0.000001 1.607371 -5.755887 48.252186 3.305803 -4.457210 73.114231 1.900421 -3.755077 53.675441 0.000000 0.000000 -0.000001 1.731017 -5.861863 50.258082 3.228077 -4.432941 72.111512 1.835294 -3.706416 52.674508 0.000000 -0.000000 -0.000000 1.858357 -5.963496 52.264608 1.534691 -3.457049 47.865296 2.142573 -3.921190 57.291681 0.000000 -0.000000 0.000001 -12.934140 9.418470 11.679000 12.265948 4.185178 -1.667351 -4.649374 0.960201 -6.555705 -2.566715 -0.000001 0.000001 -0.000000 -0.000000 -0.000000 -13.609463 -1.514265 -5.469003 10.999582 -3.726374 -0.517371 -2.691461 -1.448084 6.610586 -3.340470 0.000010 -0.000000 -0.000000 -0.000001 -0.000000 
0.763201 96.731758 26.222586 5.301577 -5.025964 -0.775870 10.403959 2.391717 -0.135607 3.954503 0.490549 -0.258316 3.949957 0.612890 0.161775 -10.372485 -1.910531 7.298727 -2.056346 5.161080 -9.794289 0.000000 0.000000 0.000000 -8.254284 21.062618 30.705413 -42.441826 -18.562774 25.886897 -0.000000 -0.000003 0.000004 -66.004291 -27.948212 56.012961 35.508180 -37.260932 -10.059996 -2.852798 51.529519 25.374499 -3.573686 37.502670 36.636571 -0.000002 0.000003 0.000004 5.517559 8.185357 -86.052406 3.600289 5.402209 -67.340713 1.934748 4.350507 -47.934691 -0.000000 -0.000000 0.000003 5.551582 8.192900 -83.938729 3.356018 5.294083 -64.720557 1.820556 4.244961 -46.410790 -0.000000 -0.000000 0.000002 5.823777 8.208201 -85.715882 3.284452 5.259839 -63.942394 1.871440 4.292677 -47.094598 0.000001 -0.000000 -0.000002 6.089685 8.208782 -91.656002 3.481258 5.351204 -66.070612 1.942562 4.357542 -48.037769 0.000000 0.000000 -0.000001 -9.865709 -22.634057 -36.794612 -55.061874 22.374224 -11.996717 -0.000001 0.000001 0.000007 -57.275907 27.055918 -63.283431 32.505973 27.038866 0.615817 12.433739 -29.190374 -12.958669 -26.424839 -67.051127 -58.492920 0.000000 0.000001 -0.000000 1.899411 -5.994725 52.900047 3.250678 -4.440150 72.403700 1.771038 -3.656609 51.673677 0.000000 -0.000000 -0.000003 1.607371 -5.755887 48.252186 3.305803 -4.457211 73.114231 1.900424 -3.755075 53.675445 -0.000000 -0.000000 0.000002 1.731018 -5.861864 50.258082 3.228077 -4.432942 72.111512 1.835295 -3.706415 52.674508 0.000001 0.000000 -0.000001 1.858357 -5.963497 52.264608 1.534690 -3.457049 47.865293 2.142573 -3.921191 57.291681 -0.000000 -0.000000 0.000000 -12.209833 9.409649 11.828999 12.807622 4.828426 -1.689460 -5.107537 0.968626 -6.718114 -2.137785 0.000003 -0.000001 -0.000000 -0.000000 -0.000000 -13.331403 -1.496412 -5.309612 11.335375 -3.150286 -0.649190 -2.695465 -1.337024 6.618171 -3.124855 0.000004 -0.000001 0.000000 0.000000 -0.000000 
0.879949 96.692001 26.228733 4.563555 -5.511277 -0.841431 10.334990 2.580552 -0.284021 3.923075 0.553474 -0.181703 3.918122 0.653380 0.150675 -10.480060 -1.982707 7.457862 -2.004368 5.489695 -9.863305 0.000000 0.000000 -0.000000 -8.383857 21.378576 30.810194 -42.953246 -20.455122 24.963114 -0.000003 0.000004 0.000007 -63.784937 -28.199715 56.762335 35.508183 -37.260932 -10.059993 -2.852789 51.529515 25.374499 -3.573682 37.502670 36.636568 0.000003 0.000001 0.000002 5.517287 8.185350 -86.050029 3.600071 5.402116 -67.338466 1.934748 4.350505 -47.934688 0.000000 0.000000 -0.000001 5.551254 8.192910 -83.935771 3.355790 5.293979 -64.718085 1.820556 4.244959 -46.410784 0.000000 0.000001 -0.000001 5.823412 8.208213 -85.712542 3.284253 5.259757 -63.940085 1.871440 4.292677 -47.094598 -0.000000 -0.000000 0.000002 6.089685 8.208782 -91.655996 3.481258 5.351205 -66.070612 1.942563 4.357541 -48.037769 -0.000000 -0.000001 0.000001 -9.745066 -22.343261 -36.886922 -53.403251 23.246832 -11.820836 0.000003 -0.000002 0.000015 -57.867446 26.952541 -64.038208 32.505977 27.038868 0.615819 12.433745 -29.190371 -12.958673 -26.424844 -67.051127 -58.492914 0.000001 0.000003 0.000002 1.899411 -5.994725 52.900047 3.250678 -4.440149 72.403700 1.771041 -3.656608 51.673673 -0.000000 -0.000000 0.000001 1.607371 -5.755887 48.252189 3.305802 -4.457209 73.114231 1.900421 -3.755075 53.675441 0.000000 0.000000 -0.000001 1.731018 -5.861863 50.258082 3.228077 -4.432943 72.111512 1.835294 -3.706416 52.674511 -0.000001 0.000000 -0.000001 1.858357 -5.963497 52.264608 1.534691 -3.457048 47.865296 2.142572 -3.921191 57.291678 0.000001 0.000000 -0.000000 -11.295722 9.496462 11.871840 12.995844 5.258576 -1.692727 -5.399923 0.964655 -6.813783 -1.924243 -0.000002 -0.000004 -0.000000 0.000001 0.000000 -12.751699 -1.495560 -5.185047 11.400235 -2.734738 -0.817578 -2.663242 -1.244716 6.679026 -2.874238 -0.000001 0.000000 0.000000 0.000000 -0.000000 
0.956470 96.754539 26.280190 3.803244 -5.648988 -0.895209 10.076389 2.665677 -0.412278 3.837316 0.594043 -0.100753 3.831927 0.673606 0.151874 -10.674554 -2.066984 7.478647 -1.663981 5.492208 -9.844629 -0.000001 0.000000 -0.000000 -8.336805 21.270213 30.903044 -42.838318 -22.293826 24.246231 -0.000001 -0.000004 0.000007 -61.667920 -28.334586 57.683113 35.508186 -37.260936 -10.059991 -2.852796 51.529519 25.374498 -3.573682 37.502670 36.636564 0.000001 0.000000 0.000001 5.517056 8.185334 -86.047591 3.599842 5.402036 -67.336185 1.934749 4.350506 -47.934688 -0.000000 -0.000000 0.000001 5.550956 8.192884 -83.932793 3.355565 5.293885 -64.715564 1.820556 4.244960 -46.410790 -0.000001 0.000001 -0.000003 5.823069 8.208199 -85.709114 3.284033 5.259644 -63.937735 1.871438 4.292677 -47.094598 0.000001 -0.000000 -0.000002 6.089686 8.208783 -91.656002 3.481258 5.351204 -66.070612 1.942563 4.357542 -48.037769 -0.000001 -0.000001 0.000002 -9.620340 -22.123411 -36.846398 -51.934385 24.574805 -11.365542 -0.000004 0.158149 0.000017 -57.761865 26.816532 -64.955980 32.505973 27.038863 0.615810 12.433746 -29.190367 -12.958666 -26.424829 -67.051127 -58.492914 -0.000000 -0.000001 -0.000001 1.899410 -5.994724 52.900041 3.250678 -4.440148 72.403707 1.771038 -3.656609 51.673677 0.000001 0.000000 -0.000002 1.607370 -5.755887 48.252182 3.305802 -4.457211 73.114231 1.900422 -3.755077 53.675445 0.000000 -0.000000 0.000000 1.731018 -5.861864 50.258079 3.228077 -4.432942 72.111505 1.835296 -3.706416 52.674508 -0.000000 -0.000000 0.000000 1.858357 -5.963497 52.264601 1.534690 -3.457049 47.865293 2.142572 -3.921192 57.291675 -0.000001 0.000000 -0.000001 -10.302467 9.721745 11.798706 12.793410 5.284900 -1.698503 -5.447946 0.918380 -6.772151 -1.884003 0.000002 0.000004 0.000000 0.000000 -0.000000 -11.858645 -1.512845 -5.135321 11.203125 -2.621482 -1.001344 -2.623403 -1.189439 6.808155 -2.683445 -0.000000 -0.000002 0.000000 -0.000000 -0.000000 
